<?xml version="1.0" encoding="utf-8"?>
<!-- Generator: Adobe Illustrator 19.2.1, SVG Export Plug-In . SVG Version: 6.00 Build 0)  -->
<svg version="1.1" id="Layer_1" xmlns="http://www.w3.org/2000/svg" xmlns:xlink="http://www.w3.org/1999/xlink" x="0px" y="0px"
	 viewBox="0 0 189 135.2" style="enable-background:new 0 0 189 135.2;" xml:space="preserve">
<style type="text/css">
	.st0{fill:#00C8DD;}
	.st1{fill:#FF1D62;}
	.st2{fill:#009DC0;}
</style>
<g>
	<path class="st0" d="M68.2,103.7c0-9.9,8-18,18-18l17.8,0V55.7c0-3.3,2.8-6.1,6.1-6.1c3.4,0,5.8,2.4,5.8,5.7c0,9.9,8.1,18,18,18
		c0,0,0,0,0.1,0c-9.9,0-17.9-8.1-17.9-18c0-9.9,8.1-18,18-18c5.3,0,10.4,1,15.1,2.8c-6-15.7-21-26.5-39-26.5
		c-23.2,0-42.1,18.8-42.1,42v48c0,9.9,8.1,18,18,18c0,0,0.1,0,0.1,0C76.2,121.6,68.2,113.6,68.2,103.7"/>
	<g>
		<path class="st1" d="M63.5,14.8c-4.8-2.7-10.9-1.1-13.6,3.7l-9.1,16l-9.1-16c-2.7-4.8-8.8-6.5-13.6-3.7c-4.8,2.7-6.5,8.8-3.7,13.6
			l17.4,30.6c0.8,1.8,2.2,3.3,4.1,4.4c1.6,0.9,3.3,1.3,4.9,1.3c0,0,0,0,0,0s0,0,0,0c1.7,0,3.4-0.4,4.9-1.3c1.8-1.1,3.2-2.6,4.1-4.4
			l17.4-30.6C70,23.7,68.3,17.5,63.5,14.8"/>
		<path class="st0" d="M149.1,40.2c1.8,4.7,2.8,9.8,2.8,15.2c0,9.9-8,18-17.9,18c0,0,0,0,0.1,0c3.3,0,6.1,2.7,6.1,6.1
			c0,3.3-2.7,6.1-6.1,6.1l-30,0.1v18c0,9.9-8,17.9-17.9,18c0,0,0.1,0,0.1,0h0l47.8-0.1c23.2,0,42.1-18.9,42.1-42.1
			C176.1,61.6,164.8,46.3,149.1,40.2"/>
	</g>
	<path class="st2" d="M103.9,103.7v-18l-17.8,0c-9.9,0-18,8.1-18,18c0,9.9,8,17.9,17.9,17.9C95.9,121.6,103.9,113.6,103.9,103.7"/>
	<path class="st2" d="M116,55.4c0,9.9,8,18,17.9,18c9.9,0,17.9-8.1,17.9-18c0-5.4-1-10.5-2.8-15.2c-4.7-1.8-9.8-2.8-15.1-2.8
		C124,37.4,116,45.4,116,55.4"/>
</g>
</svg>
