 <svg
          xmlns="http://www.w3.org/2000/svg"
          xmlns:xlink="http://www.w3.org/1999/xlink"
          version="1.1"
          id="Layer_1"
          x="0px"
          y="0px"
          viewBox="0 0 678.1 137.3"
          height="45"
          preserveAspectRatio="xMidYMid meet"
          style="display: block"
        >
          <style type="text/css">
            .st0 {
              fill: #2cc0d6;
            }

            .st1 {
              fill: #41dfff;
            }

            .st2 {
              fill: #ff005c;
            }
          </style>
          <g>
            <path
              class="st0"
              d="M65.1,110.5C65.1,110.5,65.1,110.5,65.1,110.5c2.1,0,4.1-0.5,6-1.6c2.3-1.3,4-3.2,5-5.4l-0.5,0.9   C73.4,108.3,69.3,110.5,65.1,110.5"
            ></path>
            <path
              class="st1"
              d="M54.5,92.4l10.6-18.6L48,43.8c-3.3-5.8-10.7-7.9-16.6-4.5c-5.8,3.3-7.9,10.7-4.5,16.6l27.2,47.7   C52.5,100.1,52.5,95.9,54.5,92.4"
            ></path>
            <path
              class="st1"
              d="M98.8,39.2c-5.8-3.3-13.2-1.3-16.6,4.5l-17.1,30l10.6,18.6c2,3.6,2,7.7,0.4,11.1l27.2-47.7   C106.6,50,104.6,42.5,98.8,39.2"
            ></path>
            <path
              class="st0"
              d="M54.6,104.4l-0.5-0.9c1,2.2,2.7,4.1,5,5.4c1.9,1.1,4,1.6,6,1.6c0,0,0,0,0,0C60.9,110.5,56.8,108.3,54.6,104.4"
            ></path>
            <path
              class="st0"
              d="M75.7,92.4L65.1,73.8L54.5,92.4c-2,3.6-2,7.7-0.4,11.1l0.5,0.9c2.2,3.9,6.3,6.1,10.5,6.1   c4.2,0,8.3-2.2,10.5-6.1l0.5-0.9C77.7,100.1,77.7,95.9,75.7,92.4"
            ></path>
            <path
              class="st0"
              d="M201.9,104.4c-2.2,3.9-6.3,6.1-10.5,6.1c0,0,0,0,0,0c2,0,4.1-0.5,6-1.6c2.3-1.3,4-3.2,5-5.4L201.9,104.4z"
            ></path>
            <path
              class="st1"
              d="M180.7,92.4l10.6-18.6l-17.1-30c-3.3-5.8-10.7-7.9-16.6-4.5c-5.8,3.3-7.9,10.7-4.5,16.6l27.2,47.7   C178.7,100.1,178.7,95.9,180.7,92.4"
            ></path>
            <path
              class="st0"
              d="M180.8,104.4l-0.5-0.9c1,2.2,2.7,4.1,5,5.4c1.9,1.1,4,1.6,6,1.6c0,0,0,0,0,0   C187.1,110.5,183,108.3,180.8,104.4"
            ></path>
            <path
              class="st1"
              d="M202.4,103.5l27.2-47.7c3.3-5.8,1.3-13.2-4.5-16.6c-5.8-3.3-13.3-1.3-16.6,4.5l-17.1,30l10.6,18.6   C203.9,95.9,204,100.1,202.4,103.5"
            ></path>
            <path
              class="st0"
              d="M201.9,104.4l0.5-0.9c1.6-3.4,1.6-7.6-0.4-11.1l-10.6-18.6l-10.6,18.6c-2,3.6-2,7.7-0.4,11.1l0.5,0.9   c2.2,3.9,6.3,6.1,10.5,6.1C195.5,110.5,199.6,108.3,201.9,104.4"
            ></path>
            <path
              class="st0"
              d="M262.2,37.7c0.1,0,0.2,0,0.4,0C262.5,37.7,262.3,37.7,262.2,37.7"
            ></path>
            <path
              class="st0"
              d="M263.5,37.8C263.6,37.8,263.6,37.8,263.5,37.8C263.6,37.8,263.6,37.8,263.5,37.8"
            ></path>
            <path
              class="st1"
              d="M272.6,44.7c1.6,3.4,1.6,7.6-0.4,11.1l-10.6,18.6l17.1,30c2.2,3.9,6.3,6.1,10.6,6.1c2,0,4.1-0.5,6-1.6   c5.8-3.3,7.9-10.7,4.5-16.6L272.6,44.7z"
            ></path>
            <path
              class="st0"
              d="M260.9,37.7c0.2,0,0.4,0,0.7,0C261.3,37.6,261.1,37.7,260.9,37.7"
            ></path>
            <path
              class="st0"
              d="M259.4,37.8c-1.4,0.2-2.7,0.7-3.9,1.4c-2.3,1.3-4,3.2-5,5.4l0.5-0.9C252.9,40.5,256,38.4,259.4,37.8"
            ></path>
            <path
              class="st0"
              d="M259.5,37.8c0.3-0.1,0.6-0.1,0.9-0.1C260.2,37.7,259.9,37.8,259.5,37.8"
            ></path>
            <path
              class="st0"
              d="M261.5,37.6c0.2,0,0.5,0,0.7,0C262,37.6,261.8,37.6,261.5,37.6"
            ></path>
            <path
              class="st0"
              d="M262.6,37.7c0.3,0,0.6,0.1,1,0.1C263.2,37.8,262.9,37.7,262.6,37.7"
            ></path>
            <path
              class="st1"
              d="M250.5,44.7l-27.2,47.7c-3.3,5.8-1.3,13.2,4.5,16.6c1.9,1.1,4,1.6,6,1.6c4.2,0,8.3-2.2,10.6-6.1l17.1-30   l-10.6-18.6C248.9,52.2,248.9,48.1,250.5,44.7"
            ></path>
            <path
              class="st0"
              d="M259.4,37.8c0,0,0.1,0,0.1,0C259.5,37.8,259.5,37.8,259.4,37.8"
            ></path>
            <path
              class="st0"
              d="M260.5,37.7c0.1,0,0.3,0,0.4,0C260.7,37.7,260.6,37.7,260.5,37.7"
            ></path>
            <path
              class="st0"
              d="M272.1,43.8l0.5,0.9c-1-2.2-2.7-4.1-5-5.4c-1.3-0.7-2.6-1.2-4-1.4C267.1,38.4,270.2,40.5,272.1,43.8"
            ></path>
            <path
              class="st0"
              d="M272.6,44.7l-0.5-0.9c-1.9-3.3-5-5.3-8.4-6c0,0-0.1,0-0.1,0c-0.3-0.1-0.6-0.1-1-0.1c-0.1,0-0.2,0-0.4,0   c-0.2,0-0.5,0-0.7,0c-0.2,0-0.4,0-0.7,0c-0.1,0-0.3,0-0.4,0c-0.3,0-0.6,0.1-0.9,0.1c0,0-0.1,0-0.1,0c-3.4,0.6-6.6,2.7-8.4,5.9   l-0.5,0.9c-1.6,3.4-1.6,7.6,0.4,11.1l10.6,18.6l10.6-18.6C274.1,52.2,274.2,48.1,272.6,44.7"
            ></path>
            <path
              class="st0"
              d="M525.4,37.8c-1.4,0.2-2.7,0.7-4,1.4c-2.3,1.3-4,3.2-5,5.4l0.5-0.9C518.8,40.5,522,38.4,525.4,37.8"
            ></path>
            <path
              class="st0"
              d="M529.5,37.8C529.5,37.8,529.5,37.8,529.5,37.8C529.5,37.8,529.5,37.8,529.5,37.8"
            ></path>
            <path
              class="st1"
              d="M538.5,44.7c1.6,3.4,1.6,7.6-0.4,11.1l-10.6,18.6l17.1,30c2.2,3.9,6.3,6.1,10.6,6.1c2,0,4.1-0.5,6-1.6   c5.8-3.3,7.9-10.7,4.5-16.6L538.5,44.7z"
            ></path>
            <path
              class="st0"
              d="M526.8,37.7c0.2,0,0.4,0,0.7,0C527.3,37.6,527,37.7,526.8,37.7"
            ></path>
            <path
              class="st0"
              d="M525.5,37.8c0.3-0.1,0.6-0.1,0.9-0.1C526.1,37.7,525.8,37.8,525.5,37.8"
            ></path>
            <path
              class="st0"
              d="M528.2,37.7c0.1,0,0.2,0,0.4,0C528.4,37.7,528.3,37.7,528.2,37.7"
            ></path>
            <path
              class="st0"
              d="M527.5,37.6c0.2,0,0.5,0,0.7,0C527.9,37.6,527.7,37.6,527.5,37.6"
            ></path>
            <path
              class="st0"
              d="M528.5,37.7c0.3,0,0.7,0.1,1,0.1C529.2,37.8,528.8,37.7,528.5,37.7"
            ></path>
            <path
              class="st0"
              d="M538,43.8l0.5,0.9c-1-2.2-2.7-4.1-5-5.4c-1.3-0.7-2.6-1.2-4-1.4C533,38.4,536.2,40.5,538,43.8"
            ></path>
            <path
              class="st1"
              d="M516.5,44.7l-27.2,47.7c-3.3,5.8-1.3,13.2,4.5,16.6c1.9,1.1,4,1.6,6,1.6c4.2,0,8.3-2.2,10.6-6.1l17.1-30   l-10.6-18.6C514.9,52.2,514.9,48.1,516.5,44.7"
            ></path>
            <path
              class="st0"
              d="M525.4,37.8C525.4,37.8,525.5,37.8,525.4,37.8C525.5,37.8,525.4,37.8,525.4,37.8"
            ></path>
            <path
              class="st0"
              d="M526.4,37.7c0.1,0,0.3,0,0.4,0C526.7,37.7,526.6,37.7,526.4,37.7"
            ></path>
            <path
              class="st0"
              d="M538.5,44.7l-0.5-0.9c-1.9-3.3-5-5.3-8.5-6c0,0,0,0-0.1,0c-0.3-0.1-0.6-0.1-1-0.1c-0.1,0-0.2,0-0.4,0   c-0.2,0-0.5,0-0.7,0c-0.2,0-0.4,0-0.7,0c-0.1,0-0.3,0-0.4,0c-0.3,0-0.6,0.1-0.9,0.1c0,0-0.1,0-0.1,0c-3.4,0.6-6.6,2.7-8.4,6   l-0.5,0.9c-1.6,3.4-1.6,7.6,0.4,11.1l10.6,18.6l10.6-18.6C540.1,52.2,540.1,48.1,538.5,44.7"
            ></path>
            <path
              class="st1"
              d="M129.1,38c-6.6,0-12,5.4-12,12v49c0,6.6,5.4,12,12,12c6.6,0,12-5.4,12-12V50C141.1,43.4,135.7,38,129.1,38"
            ></path>
            <path
              class="st1"
              d="M586.1,99c0,6.6,5.4,12,12,12s12-5.4,12-12V62h-24V99z"
            ></path>
            <path
              class="st1"
              d="M598.1,38h-25c-6.6,0-12,5.4-12,12c0,6.6,5.4,12,12,12h13V50C586.1,43.4,591.5,38,598.1,38"
            ></path>
            <path
              class="st1"
              d="M634.1,50c0-6.6-5.4-12-12-12h-24c6.6,0,12,5.4,12,12v12h12C628.7,62,634.1,56.6,634.1,50"
            ></path>
            <path
              class="st0"
              d="M598.1,38c-6.6,0-12,5.4-12,12v12h24V50C610.1,43.4,604.7,38,598.1,38"
            ></path>
            <path
              class="st2"
              d="M649.2,89.8c-2.3-2.3-5.4-3.6-8.6-3.6c-3.2,0-6.3,1.3-8.6,3.6c-2.3,2.3-3.6,5.4-3.6,8.6c0,3.2,1.3,6.3,3.6,8.6   c2.3,2.3,5.4,3.5,8.6,3.5c3.2,0,6.3-1.3,8.6-3.5c2.3-2.3,3.6-5.4,3.6-8.6C652.8,95.2,651.5,92,649.2,89.8"
            ></path>
            <path
              class="st1"
              d="M324,86.4l12.1,0V57.5c0-4.7,3.7-8.4,8.5-8.4c4.2,0,7.4,2.8,8.1,6.8c0.6-6.1,5.8-10.9,12.1-10.9   c3.6,0,7,0.6,10.3,1.7c-4.3-12.7-16.2-21.6-30.4-21.6c-17.9,0-32.5,14.5-32.5,32.3v38.7C313.3,90.6,318.1,86.4,324,86.4"
            ></path>
            <path
              class="st0"
              d="M355.5,65.1c2.2,2.7,5.6,4.4,9.3,4.4c0.4,0,0.7,0,1.1-0.1c-0.4-0.1-0.8-0.1-1.1-0.1   C361.1,69.4,357.8,67.7,355.5,65.1"
            ></path>
            <path
              class="st0"
              d="M324.1,111C324.1,111,324.1,111,324.1,111L324.1,111C324.1,111,324.1,111,324.1,111"
            ></path>
            <path
              class="st0"
              d="M443.9,36.5c-0.3,0-0.6,0-0.9,0c0.4,0,0.8,0,1.3,0C444.2,36.5,444,36.5,443.9,36.5"
            ></path>
            <path
              class="st0"
              d="M443.9,112.5c0.1,0,0.3,0,0.4,0c-0.4,0-0.9,0-1.3,0C443.3,112.5,443.6,112.5,443.9,112.5"
            ></path>
            <path
              class="st1"
              d="M445.6,36.6c6.3,0.4,11.3,5.7,11.3,12.1c0,6.7-5.4,12.1-12.1,12.1c-0.1,0-0.3,0-0.4,0   c7.3,0.2,13.2,6.3,13.2,13.6c0,7.4-5.9,13.4-13.2,13.6c0.1,0,0.3,0,0.4,0c6.7,0,12.1,5.4,12.1,12.2c0,6.4-5,11.7-11.3,12.1   c20.2-0.9,36.3-17.6,36.3-37.9C481.9,54.1,465.7,37.5,445.6,36.6"
            ></path>
            <path
              class="st0"
              d="M444.7,36.5c-0.1,0-0.3,0-0.4,0c0.4,0,0.9,0,1.3,0C445.3,36.6,445,36.5,444.7,36.5"
            ></path>
            <path
              class="st1"
              d="M431.7,100.3c0-6.7,5.4-12.2,12.1-12.2c0.1,0,0.3,0,0.4,0c-7.3-0.2-13.2-6.3-13.2-13.6   c0-7.4,5.9-13.4,13.2-13.6c-0.1,0-0.3,0-0.4,0c-6.7,0-12.1-5.4-12.1-12.1c0-6.4,5-11.7,11.3-12.1c-20.2,0.9-36.3,17.6-36.3,37.9   c0,20.4,16.1,37,36.3,37.9C436.7,112,431.7,106.7,431.7,100.3"
            ></path>
            <path
              class="st0"
              d="M444.7,112.5c0.3,0,0.6,0,0.9,0c-0.4,0-0.8,0-1.3,0C444.5,112.5,444.6,112.5,444.7,112.5"
            ></path>
            <path
              class="st0"
              d="M431.7,48.7c0,6.7,5.4,12.1,12.1,12.1c0.1,0,0.3,0,0.4,0c0.1,0,0.3,0,0.4,0c6.7,0,12.2-5.4,12.2-12.1   c0-6.4-5-11.7-11.3-12.1c-0.4,0-0.8,0-1.3,0c-0.4,0-0.9,0-1.3,0C436.7,37,431.7,42.3,431.7,48.7"
            ></path>
            <path
              class="st0"
              d="M456.9,100.3c0-6.7-5.4-12.2-12.1-12.2c-0.1,0-0.3,0-0.4,0c-0.1,0-0.3,0-0.4,0c-6.7,0-12.2,5.4-12.2,12.2   c0,6.4,5,11.7,11.3,12.1c0.4,0,0.8,0,1.3,0c0.4,0,0.9,0,1.3,0C451.9,112,456.9,106.7,456.9,100.3"
            ></path>
            <path
              class="st0"
              d="M355.5,65.1c-1.7-2.1-2.7-4.7-2.7-7.6c0-0.5-0.1-1.1-0.1-1.6c0,0.4-0.1,0.8-0.1,1.3   C352.6,60.2,353.7,63,355.5,65.1"
            ></path>
            <path
              class="st0"
              d="M312.1,99v-2.9c-0.2,0.8-0.3,1.7-0.3,2.5c0,6.7,5.5,12.4,12.1,12.4h0l0.1,0C317.5,111,312.1,105.6,312.1,99"
            ></path>
            <path
              class="st1"
              d="M375.1,46.7c1.1,3.4,1.8,7,1.8,10.8c0,6.3-4.8,11.4-10.9,11.9c4.1,0.6,7.2,4.1,7.2,8.3c0,4.6-3.8,8.4-8.4,8.4   l-28.6,0.1V99c0,6.6-5.4,12-12,12l40.6-0.3c18,0,32.7-14.9,32.7-32.9C397.5,63.3,388.1,51,375.1,46.7"
            ></path>
            <path
              class="st0"
              d="M352.7,55.9c0.1,0.5,0.1,1,0.1,1.6c0,2.9,1,5.5,2.7,7.6c2.2,2.6,5.5,4.3,9.2,4.3c0.4,0,0.8,0,1.1,0.1   c6.1-0.6,10.9-5.7,10.9-11.9c0-3.8-0.6-7.4-1.8-10.8c-3.2-1.1-6.7-1.7-10.3-1.7C358.5,45.1,353.3,49.8,352.7,55.9"
            ></path>
            <path
              class="st0"
              d="M336.1,99V86.3l-12.1,0c-5.8,0-10.7,4.2-11.9,9.8V99c0,6.6,5.4,12,12,12h0C330.7,111,336.1,105.6,336.1,99"
            ></path>
          </g>
        </svg>